<?xml version="1.0" encoding="UTF-8"?>
<svg width="50px" height="50px" viewBox="0 0 50 50" version="1.1" xmlns="http://www.w3.org/2000/svg" xmlns:xlink="http://www.w3.org/1999/xlink">
    <!-- Generator: Sketch 44.1 (41455) - http://www.bohemiancoding.com/sketch -->
    <title>logo-alt-xs</title>
    <desc>Created with Sketch.</desc>
    <defs></defs>
    <g id="Page-1" stroke="none" stroke-width="1" fill="none" fill-rule="evenodd">
        <g id="logo-alt-xs">
            <g id="c-logo" transform="translate(1.204188, 1.053741)">
                <rect id="grayscale" x="0" y="0" width="47.6439791" height="47.9452055"></rect>
                <path d="M27.0894764,46.7218124 C24.035445,46.7218124 21.072199,46.1194415 18.2815707,44.9316649 C15.5871728,43.7849315 13.1673822,42.1433087 11.09,40.0527924 C9.0126178,37.9622761 7.38136126,35.5272392 6.24157068,32.8158061 C5.06125654,30.0075342 4.4626178,27.0252371 4.4626178,23.9518967 C4.4626178,20.8788725 5.06125654,17.8965753 6.24157068,15.0886196 C7.38136126,12.3768704 9.0126178,9.94209694 11.09,7.85126449 C13.1673822,5.76074816 15.5871728,4.11928346 18.2815707,2.97244468 C21.072199,1.78472076 24.035445,1.18245522 27.0894764,1.18245522 C29.7290052,1.18245522 32.3153927,1.63609062 34.7765445,2.53076923 C35.6063874,2.83234984 36.0361257,3.75379347 35.7365445,4.58888303 C35.4366492,5.42391992 34.5212042,5.85642782 33.6913089,5.55474183 C31.5789005,4.7869863 29.3579058,4.39768177 27.0894764,4.39768177 C16.3748168,4.39768177 7.65769634,13.1697576 7.65769634,23.9518967 C7.65769634,34.7342993 16.3748168,43.5065859 27.0894764,43.5065859 C32.0761257,43.5065859 36.8168586,41.608588 40.4382199,38.1620653 C41.0793717,37.551844 42.0904712,37.5804531 42.6965969,38.2253425 C43.3029319,38.8705479 43.2745026,39.88804 42.6336649,40.4979979 C38.4162827,44.5113277 32.8959162,46.7218124 27.0894764,46.7218124 L27.0894764,46.7218124 Z" id="Shape" fill="#CDCDCD"></path>
                <path d="M18.9517277,39.6264489 C18.6871728,39.6264489 18.4189005,39.560274 18.1718325,39.4206533 C15.4875393,37.9062171 13.2331937,35.7006322 11.6518848,33.0421496 C10.0228796,30.3032139 9.16198953,27.1599579 9.16198953,23.9518967 C9.16198953,21.5601686 9.62790576,19.2389884 10.5465445,17.0530558 C11.4335602,14.9423077 12.7031937,13.0472076 14.3201571,11.4200738 C15.9370681,9.79293994 17.8202618,8.51527924 19.9177487,7.62260274 C22.0899476,6.69789252 24.3965445,6.22903056 26.7735079,6.22903056 C29.1502094,6.22903056 31.4568063,6.69789252 33.629267,7.62260274 C35.7264921,8.51527924 37.6096859,9.79293994 39.2265969,11.4198103 C39.8505236,12.0476291 39.8507853,13.0657007 39.226911,13.6935722 C38.6029843,14.3211275 37.5915707,14.3214436 36.9676963,13.6935722 C34.2442932,10.95353 30.6240838,9.4443098 26.7735079,9.4443098 C18.8241885,9.4443098 12.3570681,15.9523182 12.3570681,23.9518967 C12.3570681,29.1961012 15.1838743,34.0486301 19.7345026,36.6161222 C20.5040314,37.0503161 20.7780628,38.0302424 20.3465969,38.8046365 C20.0536126,39.3304531 19.510733,39.6261328 18.9517277,39.6264489 Z" id="Shape" fill="#B4B4B4"></path>
                <path d="M25.880733,35.6278188 C24.3267539,35.6278188 22.8186911,35.3213909 21.3979581,34.7167018 C20.0263351,34.1327713 18.7948691,33.2976818 17.737801,32.2338778 C16.6810471,31.1701264 15.8508901,29.9309273 15.2706283,28.5506322 C14.67,27.1209168 14.3652356,25.6033193 14.3652356,24.0394626 C14.3652356,21.9472603 14.9256545,19.8960485 15.986178,18.1079031 C17.0150785,16.3731823 18.4826702,14.9319283 20.2305759,13.9398314 C20.9989529,13.5036354 21.9732984,13.7770811 22.4067539,14.5503688 C22.8402094,15.3236038 22.5684817,16.3041096 21.8001047,16.7403056 C19.1849738,18.2246575 17.5603141,21.0216544 17.5603141,24.0394626 C17.5603141,28.6564278 21.2928272,32.4128556 25.880733,32.4128556 C28.1031937,32.4128556 30.1926178,31.5418862 31.7641885,29.9601159 C32.3880628,29.3325606 33.3997906,29.3325606 34.0236649,29.9601159 C34.6472775,30.5879874 34.6472775,31.606059 34.0236649,32.2338778 C32.9663351,33.2976818 31.7351832,34.1327713 30.3635602,34.7167018 C28.9428272,35.3213909 27.4347644,35.6278188 25.880733,35.6278188 L25.880733,35.6278188 Z" id="Shape" fill="#9B9B9B"></path>
            </g>
        </g>
    </g>
</svg>